<svg width="77" height="24" viewBox="0 0 77 24" fill="none" xmlns="http://www.w3.org/2000/svg">
<path d="M2.498 22V13.25H0V10.75H2.498V2H9.369C15.368 2 18.324 6.421 18.114 12.047C17.906 17.619 15.541 22 9.37 22H2.498ZM4.997 4.5V10.75H9.995V13.25H4.996V19.5H9.369C14.165 19.5 15.458 16.2 15.616 11.953C15.775 7.72 13.952 4.5 9.369 4.5H4.997Z" fill="white"/>
<path d="M22.5325 19.128C21.8498 19.128 21.3111 18.9893 20.9165 18.712C20.5218 18.4347 20.2391 18.04 20.0685 17.528C19.9085 17.016 19.8285 16.4133 19.8285 15.72V13.032C19.8285 12.3387 19.9085 11.736 20.0685 11.224C20.2391 10.712 20.5218 10.3173 20.9165 10.04C21.3111 9.76267 21.8498 9.624 22.5325 9.624C23.2151 9.624 23.7485 9.76267 24.1325 10.04C24.5271 10.3173 24.8045 10.712 24.9645 11.224C25.1351 11.736 25.2205 12.3387 25.2205 13.032V15.72C25.2205 16.4133 25.1351 17.016 24.9645 17.528C24.8045 18.04 24.5271 18.4347 24.1325 18.712C23.7485 18.9893 23.2151 19.128 22.5325 19.128ZM22.5325 17.864C22.8631 17.864 23.0925 17.768 23.2205 17.576C23.3591 17.384 23.4391 17.1333 23.4605 16.824C23.4925 16.504 23.5085 16.1733 23.5085 15.832V12.936C23.5085 12.584 23.4925 12.2533 23.4605 11.944C23.4391 11.6347 23.3591 11.384 23.2205 11.192C23.0925 10.9893 22.8631 10.888 22.5325 10.888C22.2018 10.888 21.9671 10.9893 21.8285 11.192C21.6898 11.384 21.6045 11.6347 21.5725 11.944C21.5511 12.2533 21.5405 12.584 21.5405 12.936V15.832C21.5405 16.1733 21.5511 16.504 21.5725 16.824C21.6045 17.1333 21.6898 17.384 21.8285 17.576C21.9671 17.768 22.2018 17.864 22.5325 17.864ZM29.2177 21.896C28.6524 21.896 28.1404 21.832 27.6817 21.704C27.2337 21.5867 26.8764 21.4 26.6097 21.144C26.3537 20.888 26.2257 20.552 26.2257 20.136C26.2257 19.816 26.3004 19.5333 26.4497 19.288C26.599 19.0533 26.791 18.8507 27.0257 18.68C27.2604 18.5093 27.5057 18.376 27.7617 18.28L28.5617 18.392C28.423 18.52 28.2897 18.6533 28.1617 18.792C28.0337 18.92 27.927 19.0533 27.8417 19.192C27.7564 19.3413 27.7137 19.5013 27.7137 19.672C27.7137 19.9493 27.831 20.1573 28.0657 20.296C28.311 20.4347 28.743 20.504 29.3617 20.504C29.9697 20.504 30.4177 20.4293 30.7057 20.28C31.0044 20.1413 31.1537 19.9173 31.1537 19.608C31.1537 19.416 31.1164 19.256 31.0417 19.128C30.967 19.0107 30.839 18.9147 30.6577 18.84C30.4764 18.7653 30.215 18.712 29.8737 18.68L27.8577 18.424C27.4417 18.3707 27.1324 18.2373 26.9297 18.024C26.727 17.8107 26.6257 17.576 26.6257 17.32C26.6257 16.936 26.7324 16.6107 26.9457 16.344C27.1697 16.0773 27.4684 15.7787 27.8417 15.448L28.4177 15.896C28.3537 15.9813 28.2737 16.104 28.1777 16.264C28.0817 16.4133 28.0337 16.5627 28.0337 16.712C28.0337 16.8293 28.0924 16.9253 28.2097 17C28.3377 17.0747 28.535 17.1227 28.8017 17.144L30.3537 17.288C31.079 17.352 31.6177 17.5707 31.9697 17.944C32.3217 18.3173 32.4977 18.8507 32.4977 19.544C32.4977 20.056 32.375 20.488 32.1297 20.84C31.895 21.192 31.5377 21.4533 31.0577 21.624C30.5777 21.8053 29.9644 21.896 29.2177 21.896ZM29.2817 16.152C28.6524 16.152 28.1404 16.0133 27.7457 15.736C27.351 15.4587 27.0577 15.0747 26.8657 14.584C26.6844 14.0933 26.5937 13.5333 26.5937 12.904C26.5937 12.1893 26.695 11.592 26.8977 11.112C27.1004 10.6213 27.399 10.2533 27.7937 10.008C28.199 9.752 28.695 9.624 29.2817 9.624C29.8897 9.624 30.3857 9.77867 30.7697 10.088C31.1537 10.3867 31.4364 10.7867 31.6177 11.288C31.799 11.7893 31.8897 12.344 31.8897 12.952C31.8897 13.5813 31.8044 14.1413 31.6337 14.632C31.4737 15.112 31.2017 15.4853 30.8177 15.752C30.4444 16.0187 29.9324 16.152 29.2817 16.152ZM29.2817 14.92C29.5164 14.92 29.703 14.8773 29.8417 14.792C29.9804 14.696 30.0817 14.5627 30.1457 14.392C30.2204 14.2213 30.2684 14.0133 30.2897 13.768C30.3217 13.512 30.3377 13.224 30.3377 12.904C30.3377 12.584 30.327 12.296 30.3057 12.04C30.2844 11.784 30.2364 11.5707 30.1617 11.4C30.087 11.2187 29.9804 11.08 29.8417 10.984C29.703 10.888 29.5217 10.84 29.2977 10.84C29.063 10.84 28.871 10.888 28.7217 10.984C28.583 11.0693 28.471 11.2027 28.3857 11.384C28.311 11.5547 28.2577 11.768 28.2257 12.024C28.2044 12.28 28.1937 12.5733 28.1937 12.904C28.1937 13.192 28.2044 13.4587 28.2257 13.704C28.2577 13.9493 28.311 14.1627 28.3857 14.344C28.4604 14.5253 28.567 14.6693 28.7057 14.776C28.855 14.872 29.047 14.92 29.2817 14.92ZM31.5697 11.304L31.1697 10.664C31.255 10.5147 31.447 10.328 31.7457 10.104C32.0444 9.88 32.3644 9.69333 32.7057 9.544L33.1537 10.664C33.0044 10.696 32.8017 10.7547 32.5457 10.84C32.3004 10.9253 32.0764 11.016 31.8737 11.112C31.671 11.1973 31.5697 11.2613 31.5697 11.304ZM40.8805 19.144C39.9631 19.144 39.2485 18.952 38.7365 18.568C38.2351 18.184 37.8831 17.6667 37.6805 17.016C37.4885 16.3653 37.3925 15.64 37.3925 14.84V10.264C37.3925 9.38933 37.4885 8.62667 37.6805 7.976C37.8831 7.32533 38.2351 6.824 38.7365 6.472C39.2485 6.10933 39.9631 5.928 40.8805 5.928C41.6911 5.928 42.3311 6.07733 42.8005 6.376C43.2805 6.67467 43.6218 7.10133 43.8245 7.656C44.0378 8.21067 44.1445 8.87733 44.1445 9.656V10.68H42.4325V9.768C42.4325 9.288 42.4058 8.86667 42.3525 8.504C42.3098 8.13067 42.1818 7.84267 41.9685 7.64C41.7551 7.43733 41.3978 7.336 40.8965 7.336C40.3845 7.336 40.0111 7.448 39.7765 7.672C39.5418 7.88533 39.3871 8.19467 39.3125 8.6C39.2485 8.99467 39.2165 9.45867 39.2165 9.992V15.128C39.2165 15.7787 39.2698 16.296 39.3765 16.68C39.4831 17.0533 39.6591 17.32 39.9045 17.48C40.1498 17.64 40.4805 17.72 40.8965 17.72C41.3871 17.72 41.7391 17.6133 41.9525 17.4C42.1658 17.176 42.2991 16.872 42.3525 16.488C42.4058 16.104 42.4325 15.656 42.4325 15.144V14.184H44.1445V15.144C44.1445 15.9333 44.0485 16.632 43.8565 17.24C43.6645 17.8373 43.3338 18.3067 42.8645 18.648C42.3951 18.9787 41.7338 19.144 40.8805 19.144ZM48.2828 19.128C47.5575 19.128 46.9975 18.9893 46.6028 18.712C46.2082 18.424 45.9308 18.008 45.7708 17.464C45.6215 16.9093 45.5468 16.232 45.5468 15.432V13.32C45.5468 12.4987 45.6268 11.816 45.7868 11.272C45.9468 10.728 46.2242 10.3173 46.6188 10.04C47.0242 9.76267 47.5788 9.624 48.2828 9.624C49.0615 9.624 49.6322 9.784 49.9948 10.104C50.3682 10.424 50.6135 10.888 50.7308 11.496C50.8482 12.0933 50.9068 12.8133 50.9068 13.656V14.408H47.2588V16.264C47.2588 16.6373 47.2908 16.9413 47.3548 17.176C47.4295 17.4107 47.5415 17.5867 47.6908 17.704C47.8508 17.8107 48.0535 17.864 48.2988 17.864C48.5548 17.864 48.7468 17.8053 48.8748 17.688C49.0135 17.56 49.1042 17.384 49.1468 17.16C49.2002 16.9253 49.2268 16.6533 49.2268 16.344V15.784H50.8908V16.136C50.8908 17.064 50.6935 17.7947 50.2988 18.328C49.9042 18.8613 49.2322 19.128 48.2828 19.128ZM47.2588 13.48H49.2268V12.648C49.2268 12.264 49.2055 11.944 49.1628 11.688C49.1202 11.4213 49.0295 11.224 48.8908 11.096C48.7628 10.9573 48.5548 10.888 48.2668 10.888C47.9895 10.888 47.7762 10.952 47.6268 11.08C47.4882 11.208 47.3922 11.4267 47.3388 11.736C47.2855 12.0347 47.2588 12.4507 47.2588 12.984V13.48ZM52.4572 19V9.752H54.1692V10.664C54.4785 10.376 54.8199 10.1307 55.1932 9.928C55.5665 9.72533 55.9772 9.624 56.4252 9.624C56.7985 9.624 57.0812 9.72 57.2732 9.912C57.4759 10.104 57.6145 10.344 57.6892 10.632C57.7745 10.92 57.8172 11.2133 57.8172 11.512V19H56.1052V12.008C56.1052 11.6773 56.0572 11.4213 55.9612 11.24C55.8652 11.0587 55.6679 10.968 55.3692 10.968C55.1772 10.968 54.9745 11.0267 54.7612 11.144C54.5585 11.2507 54.3612 11.384 54.1692 11.544V19H52.4572ZM61.9525 19.128C61.4725 19.128 61.0831 19.0373 60.7845 18.856C60.4965 18.6747 60.2831 18.4187 60.1445 18.088C60.0165 17.7573 59.9525 17.368 59.9525 16.92V10.888H58.9765V9.752H59.9525V7.048H61.6645V9.752H63.1525V10.888H61.6645V16.808C61.6645 17.1707 61.7231 17.432 61.8405 17.592C61.9578 17.7413 62.1818 17.816 62.5125 17.816C62.5978 17.816 62.6938 17.8107 62.8005 17.8C62.9178 17.7893 63.0298 17.7787 63.1365 17.768V19.032C62.9231 19.064 62.7258 19.0853 62.5445 19.096C62.3631 19.1173 62.1658 19.128 61.9525 19.128ZM66.9703 19.128C66.245 19.128 65.685 18.9893 65.2903 18.712C64.8957 18.424 64.6183 18.008 64.4583 17.464C64.309 16.9093 64.2343 16.232 64.2343 15.432V13.32C64.2343 12.4987 64.3143 11.816 64.4743 11.272C64.6343 10.728 64.9117 10.3173 65.3063 10.04C65.7117 9.76267 66.2663 9.624 66.9703 9.624C67.749 9.624 68.3197 9.784 68.6823 10.104C69.0557 10.424 69.301 10.888 69.4183 11.496C69.5357 12.0933 69.5943 12.8133 69.5943 13.656V14.408H65.9463V16.264C65.9463 16.6373 65.9783 16.9413 66.0423 17.176C66.117 17.4107 66.229 17.5867 66.3783 17.704C66.5383 17.8107 66.741 17.864 66.9863 17.864C67.2423 17.864 67.4343 17.8053 67.5623 17.688C67.701 17.56 67.7917 17.384 67.8343 17.16C67.8877 16.9253 67.9143 16.6533 67.9143 16.344V15.784H69.5783V16.136C69.5783 17.064 69.381 17.7947 68.9863 18.328C68.5917 18.8613 67.9197 19.128 66.9703 19.128ZM65.9463 13.48H67.9143V12.648C67.9143 12.264 67.893 11.944 67.8503 11.688C67.8077 11.4213 67.717 11.224 67.5783 11.096C67.4503 10.9573 67.2423 10.888 66.9543 10.888C66.677 10.888 66.4637 10.952 66.3143 11.08C66.1757 11.208 66.0797 11.4267 66.0263 11.736C65.973 12.0347 65.9463 12.4507 65.9463 12.984V13.48ZM71.1927 19V9.752H72.9047V11.064C73.246 10.4987 73.5874 10.12 73.9287 9.928C74.27 9.736 74.6114 9.64 74.9527 9.64C74.9954 9.64 75.0327 9.64 75.0647 9.64C75.1074 9.64 75.1607 9.64533 75.2247 9.656V11.544C75.0967 11.4907 74.9474 11.448 74.7767 11.416C74.6167 11.3733 74.4514 11.352 74.2807 11.352C74.014 11.352 73.7687 11.416 73.5447 11.544C73.3314 11.6613 73.118 11.896 72.9047 12.248V19H71.1927Z" fill="white"/>
</svg>
